<svg width="1218" height="1218" viewBox="0 0 1218 1218" fill="none" xmlns="http://www.w3.org/2000/svg">
<g clip-path="url(#clip0_6468_7245)">
<path d="M1040.38 710.5H888.125C790.178 710.5 710.5 790.178 710.5 888.125V913.5H456.75C373.013 913.5 304.5 844.987 304.5 761.25V507.5H329.875C427.822 507.5 507.5 427.822 507.5 329.875V177.625C507.5 79.6775 427.822 0 329.875 0H177.625C79.6775 0 0 79.6775 0 177.625V329.875C0 427.822 79.6775 507.5 177.625 507.5H203V761.25C203 901.32 316.68 1015 456.75 1015H710.5V1040.38C710.5 1138.32 790.178 1218 888.125 1218H1040.38C1138.32 1218 1218 1138.32 1218 1040.38V888.125C1218 790.178 1138.32 710.5 1040.38 710.5Z" fill="black"/>
</g>
<defs>
<clipPath id="clip0_6468_7245">
<rect width="1218" height="1218" fill="white"/>
</clipPath>
</defs>
</svg>
