<svg width="1218" height="1218" viewBox="0 0 1218 1218" fill="none" xmlns="http://www.w3.org/2000/svg">
<g clip-path="url(#clip0_6468_7247)">
<path d="M1040.38 659.75H837.375C739.428 659.75 659.75 739.428 659.75 837.375V913.5H482.125C384.178 913.5 304.5 833.822 304.5 735.875V558.25H380.625C478.572 558.25 558.25 478.572 558.25 380.625V177.625C558.25 79.6775 478.572 0 380.625 0H177.625C79.6775 0 0 79.6775 0 177.625V380.625C0 478.572 79.6775 558.25 177.625 558.25H253.75V735.875C253.75 861.735 356.265 964.25 482.125 964.25H659.75V1040.38C659.75 1138.32 739.428 1218 837.375 1218H1040.38C1138.32 1218 1218 1138.32 1218 1040.38V837.375C1218 739.428 1138.32 659.75 1040.38 659.75ZM50.75 380.625V177.625C50.75 107.59 107.59 50.75 177.625 50.75H380.625C450.66 50.75 507.5 107.59 507.5 177.625V380.625C507.5 450.66 450.66 507.5 380.625 507.5H177.625C107.59 507.5 50.75 450.66 50.75 380.625ZM1167.25 1040.38C1167.25 1110.41 1110.41 1167.25 1040.38 1167.25H837.375C767.34 1167.25 710.5 1110.41 710.5 1040.38V837.375C710.5 767.34 767.34 710.5 837.375 710.5H1040.38C1110.41 710.5 1167.25 767.34 1167.25 837.375V1040.38Z" fill="black"/>
</g>
<defs>
<clipPath id="clip0_6468_7247">
<rect width="1218" height="1218" fill="white"/>
</clipPath>
</defs>
</svg>
